:FULLY-SPECIFIED
:FORCE-ALL-JOINTS-BE-3DOF
:DEGREES
1325
root -1.50557 15.1009 6.20226 -9.52303 27.5796 1.33914
lfemur -3.49648 6.79826 -18.2636
ltibia 58.0415 -0 0
lfoot -28.5931 24.4127 -0.00301325
ltoes -14.0213 0 0
rfemur -42.3991 -1.54584 -0.147639
rtibia 32.056 -0 0
rfoot 28.9185 5.35666 -0.0515291
rtoes 9.14143 -0 0
lowerback 12.6969 0.252091 -10.8324
upperback -1.43859 -1.25599 1.32777
thorax -8.46465 -0.0606486 7.83648
lowerneck -4.95792 -8.18058 -10.053
upperneck 15.1358 -11.056 6.24487
head 6.40091 -5.52005 2.73103
lclavicle 2.28749e-14 -7.06095e-15 -4.03765e-31
lhumerus -44.121 -40.4895 117.696
lradius 111.71 -0 0
lwrist 43.428 0 0
lhand -29.413 54.674 0.0162006
lfingers 7.12502 -0 0
lthumb -2.87043 88.6656 0.120944
rclavicle 2.28749e-14 -7.06095e-15 -4.03765e-31
rhumerus 42.2481 21.8737 -53.6984
rradius 102.561 -0 0
rwrist -2.28113 0 0
rhand -27.405 -29.479 0.0804763
rfingers 7.12502 -0 0
rthumb -0.382759 -63.0289 -0.226832
1326
root -1.51632 15.1017 6.25606 -9.57632 28.0737 1.24766
lfemur -3.54787 6.80448 -18.2228
ltibia 58.1413 -0 0
lfoot -28.57 24.4096 -0.00363304
ltoes -14.0732 0 0
rfemur -42.3999 -1.52062 -0.135757
rtibia 32.0322 -0 0
rfoot 28.8476 5.37062 -0.0538692
rtoes 9.05229 -0 0
lowerback 12.7112 0.256945 -10.7865
upperback -1.43709 -1.24387 1.33726
thorax -8.47094 -0.0570412 7.81791
lowerneck -4.95901 -8.135 -10.0161
upperneck 15.1218 -10.9899 6.19821
head 6.39642 -5.48994 2.71198
lclavicle 2.27516e-14 -7.20541e-15 -4.55561e-31
lhumerus -44.2106 -40.5442 117.702
lradius 111.788 -0 0
lwrist 43.3324 0 0
lhand -29.413 54.7306 0.0179855
lfingers 7.12502 -0 0
lthumb -2.88428 89.2064 0.135971
rclavicle 2.27516e-14 -7.20541e-15 -4.55561e-31
rhumerus 42.1391 21.9341 -53.6412
rradius 102.645 -0 0
rwrist -2.30355 0 0
rhand -27.3048 -29.4095 0.0884489
rfingers 7.12502 -0 0
rthumb -0.242496 -63.3153 -0.244264
1327
root -1.52725 15.1025 6.3105 -9.63101 28.5759 1.15351
lfemur -3.6031 6.81165 -18.1822
ltibia 58.2442 -0 0
lfoot -28.5454 24.406 -0.0043062
ltoes -14.1249 0 0
rfemur -42.401 -1.49555 -0.121882
rtibia 32.0129 -0 0
rfoot 28.7715 5.38317 -0.0555523
rtoes 8.95988 -0 0
lowerback 12.7259 0.261984 -10.7395
upperback -1.43562 -1.23135 1.34691
thorax -8.47752 -0.0532932 7.79874
lowerneck -4.9602 -8.08802 -9.97821
upperneck 15.107 -10.922 6.15052
head 6.39166 -5.4589 2.69251
lclavicle 2.26255e-14 -7.35245e-15 -5.08595e-31
lhumerus -44.2956 -40.6023 117.706
lradius 111.867 -0 0
lwrist 43.235 0 0
lhand -29.4126 54.7877 0.0197647
lfingers 7.12502 -0 0
lthumb -2.89775 89.7547 0.151305
rclavicle 2.26255e-14 -7.35245e-15 -5.08595e-31
rhumerus 42.024 21.9981 -53.5855
rradius 102.728 -0 0
rwrist -2.33112 0 0
rhand -27.2014 -29.3412 0.0962161
rfingers 7.12502 -0 0
rthumb -0.100006 -63.5947 -0.260195
1328
root -1.53835 15.1033 6.36557 -9.68717 29.0861 1.05664
lfemur -3.66214 6.81978 -18.1417
ltibia 58.3504 -0 0
lfoot -28.5193 24.4019 -0.00503166
ltoes -14.1763 0 0
rfemur -42.4025 -1.47063 -0.106035
rtibia 31.9981 -0 0
rfoot 28.6903 5.39432 -0.0565795
rtoes 8.86425 -0 0
lowerback 12.741 0.267207 -10.6913
upperback -1.43419 -1.21845 1.3567
thorax -8.48437 -0.0494065 7.77897
lowerneck -4.96147 -8.03965 -9.93918
upperneck 15.0915 -10.8521 6.10182
head 6.38663 -5.42695 2.67261
lclavicle 2.24966e-14 -7.50202e-15 -5.62826e-31
lhumerus -44.3761 -40.6638 117.709
lradius 111.946 -0 0
lwrist 43.1358 0 0
lhand -29.4117 54.8451 0.0215374
lfingers 7.12502 -0 0
lthumb -2.91082 90.3103 0.166942
rclavicle 2.24966e-14 -7.50202e-15 -5.62826e-31
rhumerus 41.9028 22.0655 -53.5314
rradius 102.81 -0 0
rwrist -2.36378 0 0
rhand -27.095 -29.2739 0.103775
rfingers 7.12502 -0 0
rthumb 0.0446728 -63.8672 -0.274641
1329
root -1.54963 15.1041 6.42127 -9.7449 29.6043 0.956986
lfemur -3.72495 6.82885 -18.1015
ltibia 58.4596 -0 0
lfoot -28.4919 24.3974 -0.0058083
ltoes -14.2275 0 0
rfemur -42.4043 -1.44587 -0.0882348
rtibia 31.9878 -0 0
rfoot 28.6041 5.40407 -0.0569595
rtoes 8.76543 -0 0
lowerback 12.7564 0.272613 -10.6419
upperback -1.43279 -1.20515 1.36664
thorax -8.49151 -0.0453828 7.75863
lowerneck -4.96281 -7.98994 -9.8991
upperneck 15.0751 -10.7802 6.0521
head 6.38134 -5.39408 2.6523
lclavicle 2.2365e-14 -7.6541e-15 -6.18214e-31
lhumerus -44.4521 -40.7287 117.711
lradius 112.026 -0 0
lwrist 43.035 0 0
lhand -29.4103 54.903 0.0233031
lfingers 7.12502 -0 0
lthumb -2.9235 90.8734 0.182878
rclavicle 2.2365e-14 -7.6541e-15 -6.18214e-31
rhumerus 41.7756 22.1365 -53.4788
rradius 102.891 -0 0
rwrist -2.4015 0 0
rhand -26.9853 -29.2077 0.111125
rfingers 7.12502 -0 0
rthumb 0.1915 -64.1329 -0.287622
1330
root -1.56107 15.1048 6.47758 -9.80428 30.1304 0.854498
lfemur -3.7915 6.83886 -18.0614
ltibia 58.572 -0 0
lfoot -28.4631 24.3924 -0.00663499
ltoes -14.2785 0 0
rfemur -42.4065 -1.42126 -0.0685002
rtibia 31.9819 -0 0
rfoot 28.5129 5.41243 -0.056699
rtoes 8.66344 -0 0
lowerback 12.7723 0.278192 -10.5914
upperback -1.43142 -1.19147 1.37672
thorax -8.49892 -0.041224 7.7377
lowerneck -4.96423 -7.93889 -9.85797
upperneck 15.058 -10.7065 6.00138
head 6.37579 -5.36031 2.63157
lclavicle 2.22306e-14 -7.80863e-15 -6.74718e-31
lhumerus -44.5237 -40.7969 117.711
lradius 112.107 -0 0
lwrist 42.9324 0 0
lhand -29.4085 54.9612 0.0250609
lfingers 7.12502 -0 0
lthumb -2.93579 91.4438 0.199108
rclavicle 2.22306e-14 -7.80863e-15 -6.74718e-31
rhumerus 41.6425 22.2108 -53.4277
rradius 102.972 -0 0
rwrist -2.44422 0 0
rhand -26.8726 -29.1426 0.118262
rfingers 7.12502 -0 0
rthumb 0.340439 -64.3917 -0.299156
1331
root -1.57268 15.1056 6.5345 -9.86539 30.6642 0.749112
lfemur -3.86174 6.8498 -18.0214
ltibia 58.6874 -0 0
lfoot -28.4328 24.387 -0.00751056
ltoes -14.3293 0 0
rfemur -42.409 -1.3968 -0.0468507
rtibia 31.9805 -0 0
rfoot 28.4167 5.41942 -0.0558052
rtoes 8.55833 -0 0
lowerback 12.7885 0.283945 -10.5398
upperback -1.43008 -1.17742 1.38695
thorax -8.5066 -0.0369319 7.7162
lowerneck -4.96572 -7.88651 -9.8158
upperneck 15.0401 -10.6309 5.94967
head 6.36998 -5.32566 2.61043
lclavicle 2.20935e-14 -7.96559e-15 -7.32296e-31
lhumerus -44.5908 -40.8684 117.71
lradius 112.188 -0 0
lwrist 42.828 0 0
lhand -29.4062 55.0198 0.0268102
lfingers 7.12502 -0 0
lthumb -2.94766 92.0214 0.215629
rclavicle 2.20935e-14 -7.96559e-15 -7.32296e-31
rhumerus 41.5036 22.2885 -53.3783
rradius 103.052 -0 0
rwrist -2.49191 0 0
rhand -26.7569 -29.0786 0.125186
rfingers 7.12502 -0 0
rthumb 0.49145 -64.6438 -0.309262
1332
root -1.58446 15.1064 6.59203 -9.92832 31.2057 0.640761
lfemur -3.93563 6.86167 -17.9817
ltibia 58.8058 -0 0
lfoot -28.4012 24.3812 -0.00843383
ltoes -14.3798 0 0
rfemur -42.4118 -1.3725 -0.0233055
rtibia 31.9833 -0 0
rfoot 28.3156 5.42503 -0.0542853
rtoes 8.45012 -0 0
lowerback 12.8051 0.289869 -10.487
upperback -1.42878 -1.16299 1.39732
thorax -8.51455 -0.0325083 7.69414
lowerneck -4.96728 -7.83282 -9.7726
upperneck 15.0214 -10.5535 5.89697
head 6.3639 -5.29013 2.58888
lclavicle 2.19537e-14 -8.12493e-15 -7.90908e-31
lhumerus -44.6535 -40.9431 117.707
lradius 112.27 -0 0
lwrist 42.722 0 0
lhand -29.4035 55.0788 0.0285502
lfingers 7.12502 -0 0
lthumb -2.95913 92.6062 0.232436
rclavicle 2.19537e-14 -8.12493e-15 -7.90908e-31
rhumerus 41.3587 22.3696 -53.3304
rradius 103.131 -0 0
rwrist -2.54455 0 0
rhand -26.6381 -29.0157 0.131895
rfingers 7.12502 -0 0
rthumb 0.644497 -64.8892 -0.317961
